<svg id="SvgjsSvg1014" xmlns="http://www.w3.org/2000/svg" version="1.1" xmlns:xlink="http://www.w3.org/1999/xlink" xmlns:svgjs="http://svgjs.com/svgjs" width="12" height="13"><defs id="SvgjsDefs1015"></defs><path id="SvgjsPath1016" d="M1365.57 1464.01L1360.32 1469.26C1360.11 1469.46 1359.86 1469.56 1359.59 1469.56C1359.31 1469.56 1359.07 1469.46 1358.86 1469.26L1358.26 1468.66C1358.05 1468.45 1357.95 1468.21 1357.95 1467.92C1357.95 1467.64 1358.05 1467.39 1358.26 1467.19L1360.62 1464.8300000000002L1354.9399999999998 1464.8300000000002C1354.6599999999999 1464.8300000000002 1354.4399999999998 1464.7300000000002 1354.2599999999998 1464.5200000000002C1354.0899999999997 1464.3200000000002 1353.9999999999998 1464.0800000000002 1353.9999999999998 1463.7900000000002L1353.9999999999998 1462.7600000000002C1353.9999999999998 1462.4800000000002 1354.0899999999997 1462.2300000000002 1354.2599999999998 1462.0300000000002C1354.4399999999998 1461.8300000000002 1354.6599999999999 1461.7300000000002 1354.9399999999998 1461.7300000000002L1360.62 1461.7300000000002L1358.26 1459.3600000000004C1358.05 1459.1700000000003 1357.95 1458.9300000000003 1357.95 1458.6400000000003C1357.95 1458.3500000000004 1358.05 1458.1000000000004 1358.26 1457.9100000000003L1358.86 1457.3100000000004C1359.06 1457.1000000000004 1359.31 1457.0000000000005 1359.59 1457.0000000000005C1359.87 1457.0000000000005 1360.11 1457.1000000000004 1360.32 1457.3100000000004L1365.57 1462.5500000000004C1365.77 1462.7400000000005 1365.86 1462.9800000000005 1365.86 1463.2800000000004C1365.86 1463.5700000000004 1365.77 1463.8100000000004 1365.57 1464.0100000000004Z " fill="#ffffff" fill-opacity="1" transform="matrix(1,0,0,1,-1354,-1457)"></path></svg>