<svg id="SvgjsSvg1011" xmlns="http://www.w3.org/2000/svg" version="1.1" xmlns:xlink="http://www.w3.org/1999/xlink" xmlns:svgjs="http://svgjs.com/svgjs" width="12" height="13"><defs id="SvgjsDefs1012"></defs><path id="SvgjsPath1013" d="M565.86 1463.28C565.86 1463.57 565.77 1463.81 565.57 1464.01L560.32 1469.26C560.11 1469.46 559.86 1469.56 559.59 1469.56C559.3100000000001 1469.56 559.07 1469.46 558.86 1469.26L558.26 1468.66C558.05 1468.45 557.95 1468.21 557.95 1467.92C557.95 1467.64 558.0500000000001 1467.39 558.26 1467.19L560.62 1464.8300000000002L554.94 1464.8300000000002C554.6600000000001 1464.8300000000002 554.44 1464.7300000000002 554.2600000000001 1464.5200000000002C554.0900000000001 1464.3200000000002 554.0000000000001 1464.0800000000002 554.0000000000001 1463.7900000000002L554.0000000000001 1462.7600000000002C554.0000000000001 1462.4800000000002 554.0900000000001 1462.2300000000002 554.2600000000001 1462.0300000000002C554.44 1461.8300000000002 554.6600000000001 1461.7300000000002 554.94 1461.7300000000002L560.62 1461.7300000000002L558.26 1459.3600000000004C558.05 1459.1700000000003 557.95 1458.9300000000003 557.95 1458.6400000000003C557.95 1458.3500000000004 558.0500000000001 1458.1000000000004 558.26 1457.9100000000003L558.86 1457.3100000000004C559.0600000000001 1457.1000000000004 559.3100000000001 1457.0000000000005 559.59 1457.0000000000005C559.87 1457.0000000000005 560.11 1457.1000000000004 560.32 1457.3100000000004L565.57 1462.5500000000004C565.7700000000001 1462.7400000000005 565.86 1462.9800000000005 565.86 1463.2800000000004 " fill="#00b1f6" fill-opacity="1" transform="matrix(1,0,0,1,-554,-1457)"></path></svg>