<svg id="SvgjsSvg1000" xmlns="http://www.w3.org/2000/svg" version="1.1" xmlns:xlink="http://www.w3.org/1999/xlink" xmlns:svgjs="http://svgjs.com/svgjs" width="29" height="30"><defs id="SvgjsDefs1001"></defs><path id="SvgjsPath1007" d="M40 340C40 340.69 40.23 341.28 40.71 341.75L53.24 354.29C53.74 354.76000000000005 54.330000000000005 355 55 355C55.65 355 56.23 354.76 56.73 354.29L58.169999999999995 352.84000000000003C58.66 352.36 58.91 351.77000000000004 58.91 351.09000000000003C58.91 350.41 58.66 349.83000000000004 58.169999999999995 349.34000000000003L52.529999999999994 343.70000000000005L66.08999999999999 343.70000000000005C66.75999999999999 343.70000000000005 67.29999999999998 343.46000000000004 67.71999999999998 342.97C68.12999999999998 342.49 68.33999999999999 341.91 68.33999999999999 341.23L68.33999999999999 338.77000000000004C68.33999999999999 338.09000000000003 68.13 337.51000000000005 67.71999999999998 337.03000000000003C67.29999999999998 336.54 66.75999999999999 336.3 66.08999999999999 336.3L52.52999999999999 336.3L58.16999999999999 330.64C58.65999999999999 330.18 58.90999999999999 329.59999999999997 58.90999999999999 328.90999999999997C58.90999999999999 328.21999999999997 58.65999999999999 327.64 58.16999999999999 327.16999999999996L56.72999999999999 325.72999999999996C56.23999999999999 325.23999999999995 55.65999999999999 324.99999999999994 54.99999999999999 324.99999999999994C54.31999999999999 324.99999999999994 53.72999999999999 325.23999999999995 53.239999999999995 325.72999999999996L40.709999999999994 338.27C40.23 338.71999999999997 39.99999999999999 339.28999999999996 39.99999999999999 340 " fill="#ffffff" fill-opacity="1" transform="matrix(1,0,0,1,-40,-325)"></path></svg>