<svg id="SvgjsSvg1008" xmlns="http://www.w3.org/2000/svg" version="1.1" xmlns:xlink="http://www.w3.org/1999/xlink" xmlns:svgjs="http://svgjs.com/svgjs" width="29" height="30"><defs id="SvgjsDefs1009"></defs><path id="SvgjsPath1010" d="M1880.34 340C1880.34 340.69 1880.11 341.28 1879.6299999999999 341.75L1867.1 354.29C1866.6 354.76000000000005 1866.01 355 1865.34 355C1864.6899999999998 355 1864.11 354.76 1863.61 354.29L1862.1699999999998 352.84000000000003C1861.6799999999998 352.36 1861.4299999999998 351.77000000000004 1861.4299999999998 351.09000000000003C1861.4299999999998 350.41 1861.6799999999998 349.83000000000004 1862.1699999999998 349.34000000000003L1867.81 343.70000000000005L1854.25 343.70000000000005C1853.58 343.70000000000005 1853.04 343.46000000000004 1852.62 342.97C1852.2099999999998 342.49 1852 341.91 1852 341.23L1852 338.77000000000004C1852 338.09000000000003 1852.21 337.51000000000005 1852.62 337.03000000000003C1853.04 336.54 1853.58 336.3 1854.25 336.3L1867.81 336.3L1862.1699999999998 330.64C1861.6799999999998 330.18 1861.4299999999998 329.59999999999997 1861.4299999999998 328.90999999999997C1861.4299999999998 328.21999999999997 1861.6799999999998 327.64 1862.1699999999998 327.16999999999996L1863.61 325.72999999999996C1864.1 325.23999999999995 1864.6799999999998 324.99999999999994 1865.34 324.99999999999994C1866.02 324.99999999999994 1866.61 325.23999999999995 1867.1 325.72999999999996L1879.6299999999999 338.27C1880.11 338.71999999999997 1880.34 339.28999999999996 1880.34 340 " fill="#ffffff" fill-opacity="1" transform="matrix(1,0,0,1,-1852,-325)"></path></svg>