<svg id="SvgjsSvg1020" xmlns="http://www.w3.org/2000/svg" version="1.1" xmlns:xlink="http://www.w3.org/1999/xlink" xmlns:svgjs="http://svgjs.com/svgjs" width="38" height="38"><defs id="SvgjsDefs1021"></defs><path id="SvgjsPath1022" d="M564.75 1915.91C564.75 1916.51 564.26 1917 563.66 1917L556.3399999999999 1917C555.7399999999999 1917 555.2499999999999 1916.51 555.2499999999999 1915.91L555.2499999999999 1887.7C555.2499999999999 1887.1000000000001 555.7399999999999 1886.6100000000001 556.3399999999999 1886.6100000000001L563.1199999999999 1886.6100000000001C564.0199999999999 1886.6100000000001 564.7499999999999 1887.3400000000001 564.7499999999999 1888.2400000000002ZM550.5 1915.91C550.5 1916.51 550.01 1917 549.41 1917L542.0899999999999 1917C541.4899999999999 1917 540.9999999999999 1916.51 540.9999999999999 1915.91L540.9999999999999 1895.3500000000001C540.9999999999999 1894.7500000000002 541.4899999999999 1894.2600000000002 542.0899999999999 1894.2600000000002L548.8699999999999 1894.2600000000002C549.7699999999999 1894.2600000000002 550.4999999999999 1894.9900000000002 550.4999999999999 1895.8900000000003ZM577.91 1917C578.51 1917 579 1916.51 579 1915.91L579 1880.0900000000001C579 1879.4900000000002 578.51 1879.0000000000002 577.91 1879.0000000000002L571.13 1879.0000000000002C570.23 1879.0000000000002 569.5 1879.7300000000002 569.5 1880.6300000000003L569.5 1915.9100000000003C569.5 1916.5100000000002 569.99 1917.0000000000002 570.59 1917.0000000000002Z " fill="#ffffff" fill-opacity="1" transform="matrix(1,0,0,1,-541,-1879)"></path></svg>