<svg id="SvgjsSvg1008" xmlns="http://www.w3.org/2000/svg" version="1.1" xmlns:xlink="http://www.w3.org/1999/xlink" xmlns:svgjs="http://svgjs.com/svgjs" width="48" height="48"><defs id="SvgjsDefs1009"></defs><path id="SvgjsPath1010" d="M951.08 1695C951.08 1690.03 955.11 1686 960.08 1686C965.0400000000001 1686 969.08 1690.03 969.08 1695C969.08 1699.97 965.0400000000001 1704 960.08 1704C955.11 1704 951.08 1699.97 951.08 1695ZM977.49 1690.71C977.14 1689.3 976.64 1687.95 975.98 1686.69L979.03 1682.91C979.68 1682.1200000000001 979.65 1680.97 978.9599999999999 1680.2L977.0699999999999 1678.07C976.39 1677.3 975.2499999999999 1677.1399999999999 974.3799999999999 1677.6899999999998L970.3199999999999 1680.2399999999998C968.53 1678.9899999999998 966.4999999999999 1678.0699999999997 964.3199999999999 1677.5399999999997L963.52 1672.7499999999998C963.35 1671.7399999999998 962.48 1670.9999999999998 961.4499999999999 1670.9999999999998L958.5999999999999 1670.9999999999998C957.5699999999999 1670.9999999999998 956.6999999999999 1671.7399999999998 956.5299999999999 1672.7499999999998L955.7299999999999 1677.5399999999997C953.92 1677.9799999999998 952.2299999999999 1678.6899999999998 950.68 1679.6299999999997L946.8199999999999 1676.8699999999997C945.9799999999999 1676.2799999999997 944.8399999999999 1676.3699999999997 944.1099999999999 1677.0999999999997L942.0999999999999 1679.1099999999997C941.3699999999999 1679.8399999999997 941.2799999999999 1680.9799999999996 941.8799999999999 1681.8199999999997L944.6399999999999 1685.6899999999996C943.7099999999999 1687.2299999999996 942.9999999999999 1688.9099999999996 942.5599999999998 1690.6999999999996L937.7599999999999 1691.4999999999995C936.7399999999999 1691.6699999999996 935.9999999999999 1692.5499999999995 935.9999999999999 1693.5799999999995L935.9999999999999 1696.4199999999994C935.9999999999999 1697.4499999999994 936.7399999999999 1698.3299999999995 937.7599999999999 1698.4999999999993L942.5599999999998 1699.2999999999993C942.9299999999998 1700.7699999999993 943.4499999999998 1702.1799999999994 944.1499999999999 1703.4799999999993L941.1199999999999 1707.2399999999993C940.4799999999999 1708.0299999999993 940.5099999999999 1709.1799999999994 941.1899999999999 1709.9499999999994L943.0799999999999 1712.0799999999995C943.7599999999999 1712.8499999999995 944.9 1713.0099999999995 945.77 1712.4599999999996L949.89 1709.8699999999997C951.64 1711.0699999999997 953.61 1711.9399999999996 955.73 1712.4599999999996L956.53 1717.2399999999996C956.6999999999999 1718.2599999999995 957.5699999999999 1718.9999999999995 958.6 1718.9999999999995L961.45 1718.9999999999995C962.48 1718.9999999999995 963.35 1718.2599999999995 963.5200000000001 1717.2399999999996L964.32 1712.4599999999996C966.1 1712.0299999999995 967.7800000000001 1711.3299999999995 969.3100000000001 1710.3999999999996L973.34 1713.2799999999997C974.1700000000001 1713.8799999999997 975.3100000000001 1713.7799999999997 976.0400000000001 1713.0499999999997L978.0500000000001 1711.0399999999997C978.7800000000001 1710.3099999999997 978.8800000000001 1709.1699999999998 978.2800000000001 1708.3399999999997L975.4100000000001 1704.3099999999997C976.34 1702.7699999999998 977.0500000000001 1701.0899999999997 977.4900000000001 1699.2899999999997L982.2500000000001 1698.4999999999998C983.2600000000001 1698.3299999999997 984.0000000000001 1697.4499999999998 984.0000000000001 1696.4199999999998L984.0000000000001 1693.58C984.0000000000001 1692.55 983.2600000000001 1691.6699999999998 982.2500000000001 1691.5Z " fill="#ffffff" fill-opacity="1" transform="matrix(1,0,0,1,-936,-1671)"></path></svg>