<svg id="SvgjsSvg1017" xmlns="http://www.w3.org/2000/svg" version="1.1" xmlns:xlink="http://www.w3.org/1999/xlink" xmlns:svgjs="http://svgjs.com/svgjs" width="46" height="40"><defs id="SvgjsDefs1018"></defs><path id="SvgjsPath1019" d="M1382.71 1892.13C1382.71 1895.99 1381.05 1899.45 1378.41 1901.8600000000001L1378.43 1901.8600000000001L1364.14 1916.14C1362.71 1917.5700000000002 1361.2900000000002 1919 1359.8600000000001 1919C1358.43 1919 1357.0000000000002 1917.57 1355.5700000000002 1916.14L1341.2900000000002 1901.8600000000001L1341.3100000000002 1901.8600000000001C1338.66 1899.45 1337.0000000000002 1895.9900000000002 1337.0000000000002 1892.13C1337.0000000000002 1884.88 1342.8800000000003 1879 1350.1300000000003 1879C1353.9900000000002 1879 1357.4500000000003 1880.66 1359.8600000000004 1883.31C1362.2600000000004 1880.6599999999999 1365.7300000000002 1879 1369.5800000000004 1879C1376.8300000000004 1879 1382.7100000000005 1884.88 1382.7100000000005 1892.13 " fill="#ffffff" fill-opacity="1" transform="matrix(1,0,0,1,-1337,-1879)"></path></svg>