<svg id="SvgjsSvg1011" xmlns="http://www.w3.org/2000/svg" version="1.1" xmlns:xlink="http://www.w3.org/1999/xlink" xmlns:svgjs="http://svgjs.com/svgjs" width="48" height="48"><defs id="SvgjsDefs1012"></defs><path id="SvgjsPath1013" d="M1383.69 1682.04L1372.96 1671.31C1372.55 1670.8999999999999 1371.88 1670.8999999999999 1371.47 1671.31L1369.39 1673.3799999999999C1369.2 1673.58 1369.0800000000002 1673.85 1369.0800000000002 1674.1299999999999C1369.0800000000002 1674.4099999999999 1369.2 1674.6799999999998 1369.39 1674.8799999999999L1374.19 1679.6699999999998L1372.81 1681.05L1368.02 1676.26C1367.6 1675.84 1366.93 1675.84 1366.52 1676.26L1364.7 1678.07C1364.51 1678.27 1364.39 1678.54 1364.39 1678.82C1364.39 1679.1 1364.51 1679.37 1364.7 1679.57L1367.5800000000002 1682.4399999999998L1366.2 1683.82L1363.3300000000002 1680.95C1362.91 1680.53 1362.2500000000002 1680.53 1361.8300000000002 1680.95L1360.0100000000002 1682.76C1359.8200000000002 1682.96 1359.7100000000003 1683.23 1359.7100000000003 1683.51C1359.7100000000003 1683.79 1359.8200000000002 1684.06 1360.0100000000002 1684.26L1364.8100000000002 1689.05L1363.43 1690.43L1358.64 1685.64C1358.22 1685.22 1357.5600000000002 1685.22 1357.14 1685.64L1355.3300000000002 1687.45C1355.13 1687.65 1355.0200000000002 1687.92 1355.0200000000002 1688.2C1355.0200000000002 1688.48 1355.13 1688.75 1355.3300000000002 1688.95L1358.2 1691.82L1356.82 1693.2L1353.95 1690.3300000000002C1353.53 1689.91 1352.8700000000001 1689.91 1352.45 1690.3300000000002L1350.64 1692.14C1350.44 1692.3400000000001 1350.3300000000002 1692.6100000000001 1350.3300000000002 1692.89C1350.3300000000002 1693.17 1350.44 1693.44 1350.64 1693.64L1355.43 1698.43L1354.05 1699.8100000000002L1349.26 1695.0200000000002C1348.85 1694.6000000000001 1348.18 1694.6000000000001 1347.76 1695.0200000000002L1345.95 1696.8300000000002C1345.53 1697.2500000000002 1345.53 1697.91 1345.95 1698.3300000000002L1348.82 1701.2L1347.4399999999998 1702.5800000000002L1344.57 1699.7C1344.37 1699.51 1344.1 1699.4 1343.82 1699.4C1343.54 1699.4 1343.27 1699.51 1343.07 1699.7L1341.26 1701.52C1340.84 1701.94 1340.84 1702.6 1341.26 1703.02L1346.05 1707.81L1344.6699999999998 1709.19L1339.8799999999999 1704.39C1339.6799999999998 1704.2 1339.4099999999999 1704.0900000000001 1339.1299999999999 1704.0900000000001C1338.85 1704.0900000000001 1338.58 1704.2 1338.3799999999999 1704.39L1336.31 1706.47C1335.8999999999999 1706.88 1335.8999999999999 1707.55 1336.31 1707.96L1347.04 1718.69C1347.24 1718.9 1347.51 1719 1347.78 1719C1348.05 1719 1348.32 1718.9 1348.53 1718.69L1383.69 1683.53C1384.1000000000001 1683.12 1384.1000000000001 1682.45 1383.69 1682.04 " fill="#ffffff" fill-opacity="1" transform="matrix(1,0,0,1,-1336,-1671)"></path></svg>