<svg id="SvgjsSvg1014" xmlns="http://www.w3.org/2000/svg" version="1.1" xmlns:xlink="http://www.w3.org/1999/xlink" xmlns:svgjs="http://svgjs.com/svgjs" width="50" height="38"><defs id="SvgjsDefs1015"></defs><path id="SvgjsPath1016" d="M983.68 1885.25L979.3299999999999 1880.9C978.7399999999999 1880.3000000000002 978.0099999999999 1880 977.16 1880C976.31 1880 975.5799999999999 1880.3 974.98 1880.9L954 1901.91L944.6 1892.47C944 1891.88 943.27 1891.58 942.4200000000001 1891.58C941.57 1891.58 940.84 1891.8799999999999 940.2500000000001 1892.47L935.9000000000001 1896.82C935.3000000000001 1897.4199999999998 935.0000000000001 1898.1499999999999 935.0000000000001 1899C935.0000000000001 1899.85 935.3000000000001 1900.58 935.9000000000001 1901.18L947.4700000000001 1912.75L951.8300000000002 1917.1C952.4200000000002 1917.6999999999998 953.1500000000002 1918 954.0000000000001 1918C954.8500000000001 1918 955.5800000000002 1917.7 956.1800000000001 1917.1L960.5300000000001 1912.75L983.6800000000001 1889.6C984.2800000000001 1889 984.58 1888.27 984.58 1887.4199999999998C984.58 1886.57 984.2800000000001 1885.84 983.6800000000001 1885.2499999999998 " fill="#ffffff" fill-opacity="1" transform="matrix(1,0,0,1,-935,-1880)"></path></svg>