<?xml version="1.0" encoding="utf-8"?>
<!-- Generator: Avocode 0.4.0 - http://avocode.com -->
<svg height="37" width="128" xmlns:xlink="http://www.w3.org/1999/xlink" xmlns="http://www.w3.org/2000/svg" viewBox="0 0 128 37">
    <path fill="#004b8d" fill-rule="evenodd" d="M 97.17 14.9 L 100.64 14.9 L 100.64 0 L 97.17 0 L 97.17 14.9 Z M 22.48 6.52 L 18.52 0 L 14.64 0 L 20.74 9.39 L 20.74 14.9 L 24.23 14.9 L 24.23 9.39 L 30.32 0 L 26.44 0 L 22.48 6.52 Z M 77.71 11.73 C 77.7 12.32 77.67 13.35 76.99 14.05 C 76.31 14.75 75.4 14.89 74.44 14.9 L 64.23 14.9 L 64.23 0 L 74.44 0 C 75.4 0.01 76.31 0.15 76.99 0.85 C 77.67 1.55 77.7 2.58 77.71 3.17 L 77.71 11.73 Z M 74.46 3.76 C 74.45 3.59 74.48 3.28 74.34 3.1 C 74.19 2.9 73.94 2.92 73.63 2.91 L 67.5 2.91 L 67.5 11.98 L 73.63 11.98 C 73.94 11.98 74.19 12 74.34 11.8 C 74.48 11.62 74.45 11.31 74.46 11.13 L 74.46 3.76 Z M 41.7 11.13 C 41.69 11.31 41.72 11.62 41.57 11.8 C 41.42 12 41.17 11.98 40.86 11.98 L 34.74 11.98 L 34.74 0 L 31.47 0 L 31.47 14.9 L 41.67 14.9 C 42.65 14.89 43.55 14.75 44.22 14.05 C 44.92 13.35 44.94 12.33 44.96 11.73 L 44.96 0 L 41.7 0 L 41.7 11.13 Z M 58.05 0 L 47.85 0 L 47.85 14.9 L 51.12 14.9 L 51.12 2.91 L 57.24 2.91 C 57.55 2.92 57.79 2.91 57.95 3.1 C 58.1 3.28 58.06 3.59 58.07 3.76 L 58.07 14.9 L 61.34 14.9 L 61.34 3.17 C 61.32 2.57 61.29 1.55 60.61 0.85 C 59.93 0.15 59.03 0.01 58.05 0 L 58.05 0 Z M 81.16 0.85 C 81.84 0.15 82.74 0.01 83.71 0 L 93.89 0 L 93.89 14.9 L 90.62 14.9 L 90.62 10.15 L 83.68 10.15 L 83.68 14.9 L 80.43 14.9 L 80.43 3.17 C 80.44 2.58 80.47 1.55 81.16 0.85 L 81.16 0.85 Z M 84.52 2.91 C 84.21 2.92 83.97 2.91 83.81 3.1 C 83.66 3.28 83.7 3.59 83.68 3.76 L 83.68 7.24 L 90.62 7.24 L 90.62 2.91 L 84.52 2.91 L 84.52 2.91 Z M 10.22 5.82 L 3.26 5.82 L 3.26 0 L 0 0 L 0 14.9 L 3.26 14.9 L 3.26 8.73 L 10.22 8.73 L 10.22 14.9 L 13.48 14.9 L 13.48 0 L 10.22 0 L 10.22 5.82 Z M 15.73 21.1 L 15.73 24.19 L 20.78 24.19 L 20.78 36 L 24.17 36 L 24.17 24.19 L 29.21 24.19 L 29.21 21.1 L 15.73 21.1 Z M 10.48 27 L 4.08 27 C 3.52 27 3.25 26.72 3.25 26.15 L 3.25 24.85 C 3.25 24.41 3.52 24.19 4.08 24.19 L 13.04 24.19 L 13.04 21.1 L 3.27 21.1 C 1.09 21.1 0 22.16 0 24.26 L 0 27.03 C 0 29.07 1.04 30.08 3.12 30.08 L 9.49 30.08 C 10.05 30.08 10.32 30.37 10.32 30.93 L 10.32 32.25 C 10.32 32.69 10.05 32.91 9.49 32.91 L 0.13 32.91 L 0.13 36 L 10.32 36 C 12.51 36 13.6 34.94 13.6 32.82 L 13.6 30.05 C 13.6 28.01 12.56 27 10.48 27 L 10.48 27 Z M 50.4 24.19 L 59.26 24.19 L 59.26 21.1 L 47.01 21.1 L 47.01 36 L 59.26 36 L 59.26 32.91 L 50.4 32.91 L 50.4 29.95 L 58.1 29.95 L 58.1 27.15 L 50.4 27.15 L 50.4 27.13 L 50.4 24.19 Z M 35.29 24.19 L 44.15 24.19 L 44.15 21.1 L 31.89 21.1 L 31.89 36 L 44.15 36 L 44.15 32.91 L 35.29 32.91 L 35.29 29.95 L 42.98 29.95 L 42.98 27.15 L 35.29 27.15 L 35.29 27.13 L 35.29 24.19 Z M 73.21 33 L 73.21 36 L 62.12 36 L 62.12 21.1 L 65.51 21.1 L 65.51 33 L 73.21 33 Z M 73.21 33" />
    <text font-size="10" font-family="Roboto" fill="#004b8d" y="38" x="80">
        <tspan>SLOVAKIA</tspan>
    </text>
</svg>